<svg width="84" height="151" viewBox="0 0 84 151" fill="none" xmlns="http://www.w3.org/2000/svg">
<path d="M11.6145 132.699C12.2427 133.107 12.3957 133.358 12.6688 133.467C32.2699 136.607 50.4428 132.938 66.3897 120.813C70.4242 117.761 73.5846 113.728 75.8327 109.047C80.7381 99.0548 78.6528 87.5495 70.622 79.9198C66.459 75.9195 61.7776 72.8218 55.9012 72.0048C53.8758 73.8285 51.9216 75.7122 49.8743 77.2737C46.5222 79.8052 42.7272 80.9883 38.4945 80.0966C35.3433 79.5083 33.2127 77.7104 33.0371 75.6131C32.8066 72.8603 34.4878 70.8681 36.7921 70.0106C39.9918 68.8125 43.3555 67.9963 46.6701 67.3824C48.8161 67.0006 51.1371 67.1319 53.3161 67.1434C58.8937 58.0843 54.1768 48.2565 42.2645 43.9297C41.0197 44.8284 39.7149 45.7983 38.3991 46.6371C33.4362 49.6365 28.1066 50.621 22.5846 48.5195C20.4708 47.7103 18.5152 46.4255 18.3558 43.7327C18.2512 41.6953 19.9324 39.7031 22.7499 38.6696C27.2383 37.0971 31.8693 37.2286 36.4733 37.8245C38.0789 38.0831 39.6846 38.3417 41.2302 38.6714C50.3174 25.021 46.6129 6.78916 31.4731 2.54072C32.3246 1.67566 32.9141 0.833045 33.5584 0.645846C34.3338 0.447424 35.3552 0.822037 36.1144 1.2191C43.1117 5.17466 48.1217 10.6206 49.0152 18.9275C49.7331 25.1371 48.7143 31.0993 46.4339 36.9716C46.1066 37.7917 45.7793 38.6119 45.5229 39.492C45.4629 39.5631 45.5449 39.7541 45.6488 40.2073C46.348 40.6755 47.1292 41.3347 48.0305 41.8517C58.8079 48.388 61.6176 55.1446 58.5153 67.7543C59.6077 68.1889 60.8421 68.7432 62.0656 69.1666C69.0951 71.9312 74.6836 76.4034 78.6619 82.9279C85.1594 93.5274 84.4382 106.197 76.7914 116.556C72.6432 122.192 67.3969 126.536 61.2764 129.898C46.4419 137.968 30.7862 140.959 14.0575 137.44C13.1891 137.317 12.3098 137.062 11.4414 136.938C11.3104 136.95 11.1193 137.032 10.546 137.279C12.4802 139.886 14.933 141.59 17.3256 143.366C19.5872 145.152 22.0399 146.857 24.5746 148.752C22.8005 150.422 21.2058 150.295 19.6382 149.703C17.8576 148.931 15.9569 148.302 14.4765 147.174C10.5214 144.08 6.55537 140.855 2.8295 137.346C-0.0441542 134.555 0.484621 132.2 3.93548 130.848C11.2904 128.04 18.7164 125.292 26.1423 122.543C27.36 122.109 28.5996 121.937 30.2214 121.6C30.2498 124.304 28.7209 124.963 27.3232 125.611C22.0923 127.775 17.0745 130.119 11.6145 132.699ZM22.2876 43.396C27.7283 46.8908 33.4239 46.337 37.3597 42.1053C32.2915 41.4832 27.5456 40.7674 22.2876 43.396ZM36.9851 74.6809C42.0158 77.2206 46.406 76.0525 49.6425 71.3526C45.0225 71.3522 40.8776 71.5091 36.9851 74.6809Z" fill="#E7906B"/>
</svg>
